/* XPM */
static char *new_xpm[] = {
/* columns rows colors chars-per-pixel */
"24 24 34 1",
"  c black",
". c gray14",
"X c #363635",
"o c #3d3d37",
"O c #3c3c3c",
"+ c #4d4d45",
"@ c #4e4e4e",
"# c #505050",
"$ c #646464",
"% c #797973",
"& c #7c7c7c",
"* c #828274",
"= c #8f8f80",
"- c #949484",
"; c #98988f",
": c #a6a695",
"> c #adad9c",
", c #b2b29f",
"< c #b8b8a6",
"1 c #bdbdab",
"2 c #ceceb7",
"3 c #cdcdb8",
"4 c #d4d4bd",
"5 c #d7d7c1",
"6 c #dbdbc4",
"7 c #dfdfc8",
"8 c #e3e3cb",
"9 c #ececd3",
"0 c #f0f0d7",
"q c #f3f3da",
"w c #e7e7e7",
"e c #eeeee5",
"r c gray93",
"t c None",
/* pixels */
"tttttttttttttttttttttttt",
"tttttttttttttttttttttttt",
"ttttttttttttt tttttttttt",
"ttttttttttt  > ttttttttt",
"ttttttttt  -68.ttttttttt",
"ttttttt  :55668 tttttttt",
"ttttt  :5555668, ttttttt",
"tttt &$444566889Xttttttt",
"tttt wX<45568899q tttttt",
"tttt rro25688999q> ttttt",
"tttt eeO-468999qqq ttttt",
"tttt e#-4588990qqqq tttt",
"tttt  -4588990qqqqq3 ttt",
"tttt %5568899qqqqqqq6 tt",
"tttt ;5688890qqqqqqq* tt",
"ttttt 8888990qqqqqq  ttt",
"ttttt 1889990qqqq6 ttttt",
"tttttt@99999qqqq* tttttt",
"tttttt 9999qqq5 tttttttt",
"ttttttt 99qq9: ttttttttt",
"ttttttt 1qq3+ tttttttttt",
"tttttttt q: tttttttttttt",
"ttttttttt  ttttttttttttt",
"tttttttttttttttttttttttt"
};
