/* XPM */
static char *paste_xpm[] = {
/* columns rows colors chars-per-pixel */
"24 24 41 1",
"  c black",
". c #272727",
"X c #2f2f2b",
"o c #3e3c38",
"O c #42423a",
"+ c #4d4c46",
"@ c #4d4d4b",
"# c #595956",
"$ c #616156",
"% c #73736e",
"& c gray44",
"* c #7e7d73",
"= c #929283",
"- c #9f9f8f",
"; c #a09f9c",
": c #a5a494",
"> c #adad9c",
", c #acaba5",
"< c #aeaea8",
"1 c #b6b5a2",
"2 c #b3b3ac",
"3 c #b8b4a1",
"4 c #bbb9a6",
"5 c #c1bdac",
"6 c #c3c0af",
"7 c #c6c3b3",
"8 c #c9c5b6",
"9 c #cac7b8",
"0 c #cdcabb",
"q c #d1cfbe",
"w c #d3d3bd",
"e c #d7d7c1",
"r c #dbdbc4",
"t c #dfdfc8",
"y c #ddddda",
"u c #e4e4cc",
"i c #ebebd3",
"p c #f0f0d7",
"a c #f3f3da",
"s c #eaeae2",
"d c None",
/* pixels */
"dddddddddddddddddddddddd",
"dddddddddddddddddddddddd",
"dddddddddddddddddddddddd",
"ddddddddd   dddddddddddd",
"ddddddd  q00 dddddd dddd",
"ddddd  q00q0 ddd     ddd",
"ddd  qq*X#;00 dd     ddd",
"dd qqq#y,*o00 ddddd dddd",
"dd qqq@,*o0099 ddddddddd",
"ddd qq%+:00099 d  dddddd",
"ddd 00q0000999  w= ddddd",
"dddd qq00099 .<4we ddddd",
"dddd 0000099 s&2er> dddd",
"ddddd 009099 yO:etu dddd",
"ddddd 009909 $:rtuu1 ddd",
"dddddd 09774 4rrtuii: dd",
"dddddd 75554 =rtuuiia dd",
"ddddddd 5433  tuuiiaa: d",
"ddddddd 33  d >uiii:  dd",
"dddddddd  dddd ui:  dddd",
"dddddddddddddd -  dddddd",
"ddddddddddddddd dddddddd",
"dddddddddddddddddddddddd",
"dddddddddddddddddddddddd"
};
