/* XPM */
static char *print_xpm[] = {
/* columns rows colors chars-per-pixel */
"24 24 40 1",
"  c black",
". c #272727",
"X c gray18",
"o c #353535",
"O c gray23",
"+ c #403f3f",
"@ c #444443",
"# c #4b4b4b",
"$ c #504f4c",
"% c gray33",
"& c #5c5c5b",
"* c #646363",
"= c #6d6d6d",
"- c #717171",
"; c #7d7d7c",
": c #858584",
"> c #8d8d8d",
", c #949493",
"< c #9b9b9a",
"1 c #a5a29e",
"2 c gray64",
"3 c #aaaaaa",
"4 c #b4b4b4",
"5 c #bcbcbb",
"6 c #c5c5c4",
"7 c #cccac7",
"8 c #cbcbcb",
"9 c lightgray",
"0 c #ddddd9",
"q c #e3e2de",
"w c #e4e4e2",
"e c #e8e7e3",
"r c #eae9e6",
"t c #ecebeb",
"y c #f0efed",
"u c #f1f0ee",
"i c #f3f3f3",
"p c #f8f7f6",
"a c gray98",
"s c None",
/* pixels */
"ssssssssssssssssssssssss",
"ssssssssssssssssssssssss",
"ssssssssssssssssssssssss",
"ssssssssssss  ssssssssss",
"sssssssssss p8%  sssssss",
"ssssssssss apiuu6@   sss",
"sssssssss 6piuttreq2 sss",
"sssssssssXpiutrreq7 ssss",
"sssssss  3uutreqw0&sssss",
"sssss  84<;treqq05  ssss",
"sss  8tttw4&&:408+&=  ss",
"ss >4taipiytt,*$*@*#X ss",
"ss 3335witiyrtrr9@.oO ss",
"ss 4443239wyuri0@OOO@ ss",
"ss =244432<<906@Xo++O ss",
"ss *@*233332,;o.OO+Oo ss",
"ss &&###*:22<;oOOoOO  ss",
"sss  $%%$@@$*;OOXoo ssss",
"sssss   @&%*-=+Xo  sssss",
"ssssssss   #--O+ sssssss",
"sssssssssss     ssssssss",
"ssssssssssssssssssssssss",
"ssssssssssssssssssssssss",
"ssssssssssssssssssssssss"
};
