/* XPM */
static char *save_xpm[] = {
/* columns rows colors chars-per-pixel */
"24 24 47 1",
"  c black",
". c #34464a",
"X c #3a474a",
"o c #3e4d50",
"O c #484848",
"+ c #4b575a",
"@ c #495a5e",
"# c #465e63",
"$ c #486166",
"% c #57696d",
"& c #536e75",
"* c #557278",
"= c #606364",
"- c #657376",
"; c #607a7f",
": c #788a8d",
"> c #729096",
", c #779fa8",
"< c #7ea4ac",
"1 c #8b9394",
"2 c #8f9a9b",
"3 c #87aab2",
"4 c #8badb5",
"5 c #94b2b9",
"6 c #a4abad",
"7 c #a7b0b2",
"8 c #a9b2b4",
"9 c #b4b4b4",
"0 c #a0bcc1",
"q c #a8c1c5",
"w c #aec4c9",
"e c #bcc2c3",
"r c #bfd1d5",
"t c #c6cacc",
"y c #cfdadd",
"u c #d1d5d6",
"i c #d5dada",
"p c gainsboro",
"a c gray89",
"s c #e1eaec",
"d c #eaeaea",
"f c #e8eff0",
"g c #ecf2f3",
"h c #f2f4f4",
"j c #f5f8f9",
"k c gray100",
"l c None",
/* pixels */
"llllllllllllllllllllllll",
"llllllllllllllllllllllll",
"llllllllllllllllllllllll",
"llllllllllllll  llllllll",
"llllllllllll  ,@ lllllll",
"llllllllll  rqs, lllllll",
"llllllll  rqrkg<@ llllll",
"llllll  rqrkkkks< llllll",
"llll  3wrkkkkkkj4o lllll",
"lll 5wykkkkkkkkks, lllll",
"lll :5gkkkkkkkkkf,@ llll",
"llll qskkkkkkkhs,,, llll",
"llll ;3gkkkkhs,,&&,@ lll",
"lllll 0skkgs,,#+*,&, lll",
"lllll ;3ds,,#6da=,&,@ ll",
"llllll 5,,&thgda8$,#. ll",
"llllll >3,ej%uapi1,o  ll",
"lllllll 5,&hX<ia9-  llll",
"lllllll *,,ud7u1O llllll",
"llllllll $,&p2  llllllll",
"lllllllll     llllllllll",
"llllllllllllllllllllllll",
"llllllllllllllllllllllll",
"llllllllllllllllllllllll"
};
