/* XPM */
static char *save_as_xpm[] = {
/* columns rows colors chars-per-pixel */
"24 24 51 1",
"  c black",
". c #1b2a2d",
"X c gray17",
"o c #212f32",
"O c #2e3b3d",
"+ c #2c3d42",
"@ c #2a444b",
"# c #36575f",
"$ c #3b5055",
"% c #385c64",
"& c #756020",
"* c #45494a",
"= c #4b5c61",
"- c #45676e",
"; c #647f82",
": c #5c8791",
"> c #7d8a8c",
", c #629da8",
"< c #6da4ae",
"1 c #7aabb6",
"2 c #8e7d45",
"3 c #c6b273",
"4 c #d8be6a",
"5 c #828c8d",
"6 c #859597",
"7 c #9a918b",
"8 c #8db6be",
"9 c #a4adaf",
"0 c #a7b4b6",
"q c #aab6b8",
"w c gray72",
"e c #9ec2c7",
"r c #a8c7cb",
"t c #b1cad0",
"y c #c2c8c9",
"u c #c5d8dc",
"i c #cdd1d3",
"p c #d6dcdd",
"a c #dcddde",
"s c #d5dfe0",
"d c #d5e1e4",
"f c #dce0e0",
"g c #e1e3dc",
"h c #e4e4e4",
"j c #e5eced",
"k c #eaebeb",
"l c #e9eef0",
"z c #ecf1f2",
"x c #f2f3f3",
"c c #f9f9f9",
"v c None",
/* pixels */
"vvvvvvvvvvvvvvvvvvvvvvvv",
"vvvvvvvvvvvvvvvvvvvvvvvv",
"vvvvvvvvvvvvvvvvvvv vvvv",
"vvvvvvvvvvvvvvvvvv 4 vvv",
"vvvvvvvvvvvvv  vv 42 vvv",
"vvvvvvvvvvv  ,+  42 vvvv",
"vvvvvvvvv  urj, 42 vvvvv",
"vvvvvvv  urucx 42 vvvvvv",
"vvvvv  uruccc 42 vvvvvvv",
"vvv  1tucccc 42 o vvvvvv",
"vv 8tdcc7cc 42 l, vvvvvv",
"vv ;8zc7cc 42 cz,+ vvvvv",
"vvv rjc7c3&  gj,,, vvvvv",
"vvv -1zc7  xj,,%#,+ vvvv",
"vvvv rjc7xj,,@O%,#, vvvv",
"vvvv -1zj,,+9kk*,#,+ vvv",
"vvvvv 8,,#ixxkhq@,@. vvv",
"vvvvv :1,yx$pkha5,o  vvv",
"vvvvvv 8,#x.<ahw=  vvvvv",
"vvvvvv %,,pk0a>X vvvvvvv",
"vvvvvvv @,%h6  vvvvvvvvv",
"vvvvvvvv     vvvvvvvvvvv",
"vvvvvvvvvvvvvvvvvvvvvvvv",
"vvvvvvvvvvvvvvvvvvvvvvvv"
};
